<svg width="24" height="24" viewBox="0 0 24 24" fill="none" xmlns="http://www.w3.org/2000/svg">
<path d="M12.6957 0L15.0555 0.632318L13.285 7.24018L18.5111 2.01404L20.2386 3.74155L15.4071 8.57308L22.6466 6.63328L23.2789 8.99308L16.6786 10.7616L23.9185 12.7016L23.2862 15.0614L16.7326 13.3053C16.8141 12.9513 16.8572 12.5826 16.8572 12.2038C16.8572 9.50524 14.6696 7.31764 11.9711 7.31764C9.27253 7.31764 7.08493 9.50524 7.08493 12.2038C7.08493 12.585 7.12861 12.9561 7.21117 13.3122L0 11.3799L0.632313 9.02014L7.23217 10.7886L1.93253 5.4889L3.66004 3.76139L8.49163 8.59294L6.55183 1.35366L8.91169 0.721344L10.7071 7.42174L12.6957 0Z" fill="white"/>
<path d="M16.7261 13.3328C16.5238 14.1882 16.0967 14.9566 15.5106 15.5723L20.2584 20.3201L21.9859 18.5926L16.7261 13.3328Z" fill="white"/>
<path d="M15.4626 15.6219C14.8694 16.2278 14.1199 16.6799 13.2793 16.9128L15.0069 23.3604L17.3667 22.7281L15.4626 15.6219Z" fill="white"/>
<path d="M13.1911 16.9364C12.8011 17.0367 12.3923 17.09 11.9711 17.09C11.5198 17.09 11.0827 17.0288 10.6678 16.9142L8.93862 23.3677L11.2984 24L13.1911 16.9364Z" fill="white"/>
<path d="M10.5844 16.8904C9.75668 16.6458 9.02042 16.188 8.43938 15.5804L3.67989 20.3399L5.4074 22.0674L10.5844 16.8904Z" fill="white"/>
<path d="M8.39964 15.5384C7.82856 14.927 7.41258 14.1688 7.21458 13.3266L0.639569 15.0884L1.27188 17.4482L8.39964 15.5384Z" fill="white"/>
</svg>
